<mxfile host="app.diagrams.net" agent="Mozilla/5.0 (Windows NT 10.0; Win64; x64) AppleWebKit/537.36 (KHTML, like Gecko) Chrome/128.0.0.0 Safari/537.36" version="24.7.13">
  <diagram name="PÃ¡gina-1" id="gpKVvN9CuKya5Epck6a0">
    <mxGraphModel dx="722" dy="1556" grid="1" gridSize="10" guides="1" tooltips="1" connect="1" arrows="1" fold="1" page="1" pageScale="1" pageWidth="827" pageHeight="1169" math="0" shadow="0">
      <root>
        <mxCell id="0" />
        <mxCell id="1" parent="0" />
        <mxCell id="UAWNQgPJYfu6M1fQTLBm-67" value="" style="endArrow=none;dashed=1;html=1;dashPattern=1 3;strokeWidth=2;rounded=0;" edge="1" parent="1">
          <mxGeometry width="50" height="50" relative="1" as="geometry">
            <mxPoint x="930" y="780" as="sourcePoint" />
            <mxPoint x="930" y="-270" as="targetPoint" />
          </mxGeometry>
        </mxCell>
        <mxCell id="UAWNQgPJYfu6M1fQTLBm-72" style="edgeStyle=orthogonalEdgeStyle;rounded=0;orthogonalLoop=1;jettySize=auto;html=1;" edge="1" parent="1" source="UAWNQgPJYfu6M1fQTLBm-25" target="UAWNQgPJYfu6M1fQTLBm-71">
          <mxGeometry relative="1" as="geometry" />
        </mxCell>
        <mxCell id="UAWNQgPJYfu6M1fQTLBm-25" value="app-clustering" style="whiteSpace=wrap;html=1;align=center;" vertex="1" parent="1">
          <mxGeometry x="505" y="590" width="210" height="80" as="geometry" />
        </mxCell>
        <mxCell id="UAWNQgPJYfu6M1fQTLBm-55" style="edgeStyle=orthogonalEdgeStyle;rounded=0;orthogonalLoop=1;jettySize=auto;html=1;" edge="1" parent="1" source="UAWNQgPJYfu6M1fQTLBm-46" target="UAWNQgPJYfu6M1fQTLBm-54">
          <mxGeometry relative="1" as="geometry" />
        </mxCell>
        <mxCell id="UAWNQgPJYfu6M1fQTLBm-46" value="Seleccion&lt;div&gt;datasets&lt;/div&gt;" style="whiteSpace=wrap;html=1;align=center;" vertex="1" parent="1">
          <mxGeometry x="1110" y="-110" width="190" height="120" as="geometry" />
        </mxCell>
        <mxCell id="UAWNQgPJYfu6M1fQTLBm-49" value="visualizacion" style="whiteSpace=wrap;html=1;align=center;" vertex="1" parent="1">
          <mxGeometry x="1060" y="585" width="180" height="90" as="geometry" />
        </mxCell>
        <mxCell id="UAWNQgPJYfu6M1fQTLBm-58" style="edgeStyle=orthogonalEdgeStyle;rounded=0;orthogonalLoop=1;jettySize=auto;html=1;" edge="1" parent="1" source="UAWNQgPJYfu6M1fQTLBm-53" target="UAWNQgPJYfu6M1fQTLBm-57">
          <mxGeometry relative="1" as="geometry" />
        </mxCell>
        <mxCell id="UAWNQgPJYfu6M1fQTLBm-53" value="prerocesamiento&lt;div&gt;datasets&lt;/div&gt;" style="whiteSpace=wrap;html=1;align=center;" vertex="1" parent="1">
          <mxGeometry x="520" y="-110" width="210" height="90" as="geometry" />
        </mxCell>
        <mxCell id="UAWNQgPJYfu6M1fQTLBm-56" style="edgeStyle=orthogonalEdgeStyle;rounded=0;orthogonalLoop=1;jettySize=auto;html=1;" edge="1" parent="1" source="UAWNQgPJYfu6M1fQTLBm-54" target="UAWNQgPJYfu6M1fQTLBm-53">
          <mxGeometry relative="1" as="geometry" />
        </mxCell>
        <mxCell id="UAWNQgPJYfu6M1fQTLBm-54" value="datasets&lt;div&gt;crudos&lt;/div&gt;" style="whiteSpace=wrap;html=1;align=center;" vertex="1" parent="1">
          <mxGeometry x="870" y="-75" width="100" height="40" as="geometry" />
        </mxCell>
        <mxCell id="UAWNQgPJYfu6M1fQTLBm-63" style="edgeStyle=orthogonalEdgeStyle;rounded=0;orthogonalLoop=1;jettySize=auto;html=1;" edge="1" parent="1" source="UAWNQgPJYfu6M1fQTLBm-57" target="UAWNQgPJYfu6M1fQTLBm-25">
          <mxGeometry relative="1" as="geometry" />
        </mxCell>
        <mxCell id="UAWNQgPJYfu6M1fQTLBm-57" value="datasets&lt;div&gt;preprocesados&lt;/div&gt;" style="whiteSpace=wrap;html=1;align=center;" vertex="1" parent="1">
          <mxGeometry x="560" y="310" width="100" height="40" as="geometry" />
        </mxCell>
        <mxCell id="UAWNQgPJYfu6M1fQTLBm-61" style="edgeStyle=orthogonalEdgeStyle;rounded=0;orthogonalLoop=1;jettySize=auto;html=1;" edge="1" parent="1" source="UAWNQgPJYfu6M1fQTLBm-59" target="UAWNQgPJYfu6M1fQTLBm-60">
          <mxGeometry relative="1" as="geometry" />
        </mxCell>
        <mxCell id="UAWNQgPJYfu6M1fQTLBm-59" value="Seleccion de hyperparametros&lt;div&gt;&lt;span style=&quot;background-color: initial;&quot;&gt;- analizar medicamentos, practicas u ambos&lt;/span&gt;&lt;div&gt;- que medicamentos y/o practicas de interes analizar&lt;/div&gt;&lt;div&gt;- cantidad de clusters&lt;/div&gt;&lt;/div&gt;" style="whiteSpace=wrap;html=1;align=center;" vertex="1" parent="1">
          <mxGeometry x="1080" y="300" width="220" height="130" as="geometry" />
        </mxCell>
        <mxCell id="UAWNQgPJYfu6M1fQTLBm-60" value="hyperparametros" style="whiteSpace=wrap;html=1;align=center;" vertex="1" parent="1">
          <mxGeometry x="840" y="345" width="100" height="40" as="geometry" />
        </mxCell>
        <mxCell id="UAWNQgPJYfu6M1fQTLBm-62" style="edgeStyle=orthogonalEdgeStyle;rounded=0;orthogonalLoop=1;jettySize=auto;html=1;entryX=0.563;entryY=-0.012;entryDx=0;entryDy=0;entryPerimeter=0;" edge="1" parent="1" source="UAWNQgPJYfu6M1fQTLBm-60" target="UAWNQgPJYfu6M1fQTLBm-25">
          <mxGeometry relative="1" as="geometry" />
        </mxCell>
        <mxCell id="UAWNQgPJYfu6M1fQTLBm-64" value="" style="endArrow=none;dashed=1;html=1;dashPattern=1 3;strokeWidth=2;rounded=0;" edge="1" parent="1">
          <mxGeometry width="50" height="50" relative="1" as="geometry">
            <mxPoint x="420" y="100" as="sourcePoint" />
            <mxPoint x="1370" y="100" as="targetPoint" />
          </mxGeometry>
        </mxCell>
        <mxCell id="UAWNQgPJYfu6M1fQTLBm-65" value="&lt;b&gt;DTIC&lt;/b&gt;" style="text;html=1;align=center;verticalAlign=middle;resizable=0;points=[];autosize=1;strokeColor=none;fillColor=none;" vertex="1" parent="1">
          <mxGeometry x="1335" y="50" width="50" height="30" as="geometry" />
        </mxCell>
        <mxCell id="UAWNQgPJYfu6M1fQTLBm-66" value="&lt;b&gt;AUDITORIA MEDICA&lt;/b&gt;" style="text;html=1;align=center;verticalAlign=middle;resizable=0;points=[];autosize=1;strokeColor=none;fillColor=none;" vertex="1" parent="1">
          <mxGeometry x="1260" y="150" width="140" height="30" as="geometry" />
        </mxCell>
        <mxCell id="UAWNQgPJYfu6M1fQTLBm-68" value="FRONTEND&lt;div&gt;(TAL VEZ NO PODAMOS IMPLEMENTAR ESO,&lt;/div&gt;&lt;div&gt;YA QUE REQUIERE ACCESO A SOSUNC)&lt;/div&gt;&lt;div&gt;&lt;br&gt;&lt;/div&gt;&lt;div&gt;(SINO, PODEMOS HACER UN PROTOTIPO DE FRONT).&lt;/div&gt;" style="text;html=1;align=center;verticalAlign=middle;resizable=0;points=[];autosize=1;strokeColor=none;fillColor=none;" vertex="1" parent="1">
          <mxGeometry x="950" y="-290" width="340" height="90" as="geometry" />
        </mxCell>
        <mxCell id="UAWNQgPJYfu6M1fQTLBm-69" value="BACKEND&lt;div&gt;(PROBABLEMENTE&lt;/div&gt;&lt;div&gt;SOLO PODAMOS&lt;/div&gt;&lt;div&gt;IMPLEMENTAR ESO)&lt;/div&gt;" style="text;html=1;align=center;verticalAlign=middle;resizable=0;points=[];autosize=1;strokeColor=none;fillColor=none;" vertex="1" parent="1">
          <mxGeometry x="720" y="-290" width="140" height="70" as="geometry" />
        </mxCell>
        <mxCell id="UAWNQgPJYfu6M1fQTLBm-70" value="Dos dimensiones de analisis: DTIC/auditoria y frontend/backend.&lt;div&gt;&lt;br&gt;&lt;/div&gt;&lt;div&gt;&amp;nbsp;DTIC&amp;nbsp; y auditoria. En DTIC, subiran la primera vez,&lt;div&gt;y a futuro cada vez que necesiten, los dataset que seran necesarios para aplicar&lt;/div&gt;&lt;div&gt;ML. Estos datasets deben tener una estructura predifinda entre los desarrolladores&lt;/div&gt;&lt;div&gt;y DTIC. Para cada aplicacion de la suite se necesitaran un conjunto especifico de&lt;/div&gt;&lt;div&gt;datasets. En principio, el prototipo hecho en la materia solo cuenta con una aplicacion&lt;/div&gt;&lt;/div&gt;&lt;div&gt;para la suite. Aun asi ,se la diseniara de forma modular para fomentar su&lt;/div&gt;&lt;div&gt;escalabilidad.&lt;/div&gt;&lt;div&gt;&lt;br&gt;&lt;/div&gt;&lt;div&gt;Desde auditoria medica, podran consumir las aplicaciones de la suite. Al elegir una aplicacion.&lt;/div&gt;&lt;div&gt;Se les pedira un conjunto de hyperparametros, propios dee cada aplicacion. En el disenio&lt;/div&gt;&lt;div&gt;dimos algunos ejemplo de hyperparametros para la aplicaciones de este prototipo.&lt;/div&gt;&lt;div&gt;&lt;br&gt;&lt;/div&gt;&lt;div&gt;Al elegir los hyperparametros, podran visualizar el analisis estadistico resultante de la&lt;/div&gt;&lt;div&gt;aplicaicion.&amp;nbsp;&lt;/div&gt;" style="text;html=1;align=center;verticalAlign=middle;resizable=0;points=[];autosize=1;strokeColor=none;fillColor=none;" vertex="1" parent="1">
          <mxGeometry x="1390" y="-170" width="520" height="240" as="geometry" />
        </mxCell>
        <mxCell id="UAWNQgPJYfu6M1fQTLBm-73" style="edgeStyle=orthogonalEdgeStyle;rounded=0;orthogonalLoop=1;jettySize=auto;html=1;" edge="1" parent="1" source="UAWNQgPJYfu6M1fQTLBm-71" target="UAWNQgPJYfu6M1fQTLBm-49">
          <mxGeometry relative="1" as="geometry" />
        </mxCell>
        <mxCell id="UAWNQgPJYfu6M1fQTLBm-71" value="resultados&lt;div&gt;(jsons y posiblemente algunos graficos fabricados)&lt;/div&gt;" style="whiteSpace=wrap;html=1;align=center;" vertex="1" parent="1">
          <mxGeometry x="810" y="597.5" width="120" height="65" as="geometry" />
        </mxCell>
      </root>
    </mxGraphModel>
  </diagram>
</mxfile>
